<?xml version="1.0" standalone="no"?>
<!DOCTYPE svg PUBLIC "-//W3C//DTD SVG 20010904//EN"
 "http://www.w3.org/TR/2001/REC-SVG-20010904/DTD/svg10.dtd">
<svg version="1.0" xmlns="http://www.w3.org/2000/svg"
 width="3000.000000pt" height="2409.000000pt" viewBox="0 0 3000.000000 2409.000000"
 preserveAspectRatio="xMidYMid meet">

<g transform="translate(0.000000,2409.000000) scale(0.100000,-0.100000)"
fill="#000000" stroke="none">
<path fill="red" d="M4100 18160 l0 -350 -355 0 -355 0 0 -355 0 -355 -350 0 -350 0 0
-1910 0 -1910 350 0 350 0 0 -855 0 -855 -350 0 -350 0 0 -2615 0 -2615 350 0
350 0 0 -350 0 -350 2615 0 2615 0 0 350 0 350 353 2 352 3 3 353 2 352 300 0
300 0 2 -352 3 -353 353 -3 352 -2 0 -350 0 -350 1205 0 1205 0 0 350 0 350
350 0 350 0 0 355 0 355 305 0 305 0 0 -705 0 -705 6240 0 6240 0 0 2965 0
2965 -350 0 -350 0 0 150 0 150 350 0 350 0 0 1205 0 1205 -350 0 -350 0 0
910 0 910 350 0 350 0 0 1205 0 1205 -4475 0 -4475 0 0 -350 0 -350 -205 0
-205 0 0 350 0 350 -1560 0 -1560 0 0 -350 0 -350 -305 0 -305 0 0 350 0 350
-1905 0 c-1517 0 -1905 -3 -1905 -12 0 -7 -2 -165 -3 -350 l-2 -338 -302 0
-303 0 0 350 0 350 -2615 0 -2615 0 0 -350z m4370 -850 l0 -350 -1410 0 -1410
0 0 -355 0 -355 -355 0 -355 0 0 -1060 0 -1060 355 0 355 0 0 -355 0 -355 710
0 710 0 0 710 0 710 -355 0 -355 0 0 350 0 350 1055 0 1055 0 0 -1405 0 -1405
-1760 0 -1760 0 0 360 0 360 -350 0 -350 0 0 345 0 345 -355 0 -355 0 0 1050
c0 833 3 1050 13 1050 6 0 165 1 352 3 l340 2 3 353 2 352 350 0 350 0 0 348
c0 192 3 352 7 355 3 4 795 7 1760 7 l1753 0 0 -350z m4428 -7 l2 -353 350 0
350 0 0 -350 0 -350 23 -5 c12 -3 172 -5 355 -3 l332 3 0 -1757 0 -1758 -700
0 -700 0 0 705 0 705 -1065 0 -1065 0 0 -705 0 -705 -700 0 -700 0 2 1755 3
1756 350 2 350 2 3 353 2 352 350 0 350 0 0 348 c0 192 3 352 7 355 3 4 477 6
1052 5 l1046 -3 3 -352z m3722 2 l0 -355 355 0 355 0 0 -356 c0 -321 2 -356
16 -350 9 3 168 6 355 6 l339 0 0 350 0 350 350 0 350 0 2 353 3 352 700 0
700 0 3 -2462 2 -2463 -705 0 -705 0 0 1055 0 1055 -355 0 -355 0 0 -350 0
-350 -350 0 -350 0 0 350 0 350 -355 0 -355 0 0 -1055 0 -1055 -700 0 -700 0
0 2465 0 2465 700 0 700 0 0 -355z m9363 2 l2 -347 -1762 0 -1763 0 0 -710 0
-710 1410 0 1410 0 0 -350 0 -350 -1410 0 -1410 0 0 -710 0 -710 1763 0 1762
0 -3 -345 -3 -345 -2459 0 -2460 0 0 2465 0 2465 2460 -2 2461 -3 2 -348z
m-10875 -5368 l-3 -334 -327 -3 -328 -2 0 340 0 340 323 2 c177 2 325 0 330
-3 4 -3 6 -156 5 -340z m5912 6 l0 -345 -325 0 -325 0 0 340 0 340 323 3 c177
1 323 3 325 5 1 1 2 -153 2 -343z m-11940 -135 l0 -440 -420 0 -420 0 0 433
c0 239 3 437 7 440 3 4 192 7 420 7 l413 0 0 -440z m-1319 -412 c0 -13 0 -170
-1 -350 l-1 -328 355 0 356 0 0 -1760 0 -1760 -355 0 -355 0 0 -350 0 -350
-1755 -2 -1755 -3 0 353 0 352 -355 0 -355 0 0 1760 0 1760 355 0 355 0 0 350
0 350 1755 0 1755 0 1 -22z m3019 -1033 l0 -1055 355 0 355 0 0 -355 0 -355
355 0 355 0 0 355 0 355 355 0 355 0 0 1055 0 1055 700 0 700 0 0 -1405 0
-1405 -355 0 -355 0 0 -350 0 -350 -350 0 -350 0 0 -355 0 -355 -355 0 -355 0
0 -352 0 -353 -345 0 -345 0 0 353 0 352 -355 0 -355 0 0 355 0 355 -350 0
-350 0 0 350 0 350 -355 0 -355 0 0 1405 0 1405 700 0 700 0 0 -1055z m9370
710 l0 -345 -1765 0 -1765 0 0 -710 0 -710 1410 0 1410 0 0 -350 0 -350 -1410
0 -1410 0 0 -710 0 -710 1765 0 1765 0 0 -345 0 -345 -2465 0 -2465 0 0 2460
0 2460 2465 0 2465 0 0 -345z m5130 -5 l0 -350 349 0 350 0 3 -22 c2 -13 2
-488 0 -1055 l-2 -1033 -705 0 -706 0 2 -355 1 -355 354 0 354 0 0 -355 0
-355 350 -2 351 -3 2 -343 2 -342 -1052 0 -1053 0 0 350 0 350 -355 0 -355 0
0 355 0 355 -355 0 -355 0 0 -705 0 -705 -700 -2 -700 -3 0 2463 0 2462 2110
0 2110 0 0 -350z"/>
<path fill="red" d="M11490 16605 l0 -355 -355 0 -355 0 2 -707 3 -708 1060 0 1060 0 3
708 2 707 -355 0 -355 0 0 355 0 355 -355 0 -355 0 0 -355z"/>
<path fill="red" d="M4945 10718 c-3 -7 -4 -803 -3 -1768 l3 -1755 1063 -3 1062 -2 0
1770 0 1770 -1060 0 c-839 0 -1062 -3 -1065 -12z"/>
<path fill="red" d="M22460 9665 l0 -1065 710 0 710 0 0 355 0 355 350 0 350 0 0 710 0
710 -1060 0 -1060 0 0 -1065z"/>
</g>
</svg>
